# xmcd
#
# Track frame offsets:
#      150
#      20273
#      39385
#      59733
#      78840
#      101688
#      120683
#      141410
#      159115
#      175888
# 
# Disc length: 2647 seconds
#
# Revision: 3
# Processed by: cddbd v1.4PL0 Copyright (c) Steve Scherf et al.
#
# Submitted via: FreeRIP 1.20
#
DISCID=7c0a550a
DTITLE=Eurythmics - Revenge
DYEAR=1986
DGENRE=Pop
TTITLE0=Missionary Man
TTITLE1=Thorn In My Side
TTITLE2=When Tomorrow Comes
TTITLE3=The Last Time
TTITLE4=The Miracle Of Love
TTITLE5=Lets Go!
TTITLE6=Take Your Pain Away
TTITLE7=A Little Of You
TTITLE8=In This Town
TTITLE9=I Remember You
EXTD=
EXTT0=
EXTT1=
EXTT2=
EXTT3=
EXTT4=
EXTT5=
EXTT6=
EXTT7=
EXTT8=
EXTT9=
PLAYORDER=
